<svg width="432" height="433" viewBox="0 0 432 433" fill="none" xmlns="http://www.w3.org/2000/svg">
<path d="M427.312 404.688L311.168 288.54C336.632 258.008 352 218.776 352 176C352 78.952 273.048 0 176 0C78.952 0 0 78.952 0 176C0 273.048 78.952 352 176 352C218.776 352 258.008 336.632 288.54 311.168L404.688 427.316C407.812 430.44 411.908 432.004 416 432.004C420.092 432.004 424.188 430.44 427.312 427.316C433.564 421.064 433.564 410.936 427.312 404.688ZM32 176C32 96.6 96.592 32 176 32C255.408 32 320 96.6 320 176C320 255.4 255.408 320 176 320C96.592 320 32 255.4 32 176Z" fill="black"/>
</svg>
