<svg width="32" height="32" viewBox="0 0 32 32" fill="none" xmlns="http://www.w3.org/2000/svg">
<rect width="32" height="32" rx="6" fill="#370F9B"/>
<path d="M13.7071 5.75L13.5031 19.758C13.5031 21.5033 13.5371 22.7953 13.6051 23.634C13.9678 23.7247 14.5458 23.77 15.3391 23.77C16.1551 23.77 16.8465 23.702 17.4131 23.566C18.0025 23.43 18.4898 23.192 18.8751 22.852C19.2831 22.4893 19.6118 22.1607 19.8611 21.866C20.1105 21.5487 20.3258 21.084 20.5071 20.472C20.7791 19.656 21.0511 18.5793 21.3231 17.242C21.3231 17.2193 21.4818 17.208 21.7991 17.208C22.1391 17.208 22.6605 17.3667 23.3631 17.684C24.0885 17.9787 24.4511 18.2053 24.4511 18.364C24.4511 20.1093 24.3605 22.0813 24.1791 24.28C23.9978 26.728 23.7711 27.952 23.4991 27.952C23.2498 27.952 22.7511 27.85 22.0031 27.646C21.2551 27.4647 20.6885 27.2947 20.3031 27.136C18.2631 27.476 15.6225 27.6573 12.3811 27.68L10.6811 27.714L9.32113 27.544C9.23046 27.4533 9.18513 26.456 9.18513 24.552L9.32113 11.53C9.32113 8.878 9.25313 7.47267 9.11713 7.314C9.00379 7.13267 8.79979 6.702 8.50513 6.022C8.21046 5.31933 8.06313 4.866 8.06313 4.662C8.06313 4.57133 8.31246 4.44667 8.81113 4.288C10.0578 3.83467 11.1571 3.608 12.1091 3.608C13.0611 3.608 13.5598 3.642 13.6051 3.71C13.6731 3.778 13.7071 4.458 13.7071 5.75Z" fill="white"/>
</svg>
