<svg width="112" height="67" viewBox="0 0 112 67" fill="none" xmlns="http://www.w3.org/2000/svg">
<path d="M3.936 54H4.932V50.352H9.096V49.464H4.932V46.884H9.18V45.996H3.936V54ZM15.1657 54H16.3417L14.1817 50.736C15.2737 50.64 16.2577 49.848 16.2577 48.408C16.2577 46.932 15.2137 45.996 13.7497 45.996H10.5337V54H11.5297V50.82H13.1257L15.1657 54ZM15.2257 48.408C15.2257 49.308 14.5777 49.944 13.6297 49.944H11.5297V46.884H13.6297C14.5777 46.884 15.2257 47.508 15.2257 48.408ZM17.8344 54H23.0784V53.112H18.8304V50.352H22.9944V49.464H18.8304V46.884H23.0784V45.996H17.8344V54ZM24.6665 54H29.9105V53.112H25.6625V50.352H29.8265V49.464H25.6625V46.884H29.9105V45.996H24.6665V54ZM36.5723 54H37.5683V46.884H40.1123V45.996H34.0403V46.884H36.5723V54ZM41.436 54H46.68V53.112H42.432V50.352H46.596V49.464H42.432V46.884H46.68V45.996H41.436V54ZM55.108 54H56.104V45.996H54.676L52.18 52.092L49.696 45.996H48.268V54H49.264V47.34L51.976 54H52.384L55.108 47.34V54ZM57.9712 54H58.9672V50.82H61.1872C62.7712 50.82 63.6952 49.716 63.6952 48.408C63.6952 47.1 62.7952 45.996 61.1872 45.996H57.9712V54ZM62.6632 48.408C62.6632 49.308 62.0152 49.932 61.0672 49.932H58.9672V46.884H61.0672C62.0152 46.884 62.6632 47.508 62.6632 48.408ZM65.0141 54H69.7301V53.112H66.0101V45.996H65.0141V54ZM76.8793 54H77.9833L74.7553 45.996H73.5193L70.3033 54H71.4073L72.1153 52.224H76.1713L76.8793 54ZM74.1433 46.884L75.8713 51.336H72.4033L74.1433 46.884ZM80.2012 54H81.1972V46.884H83.7412V45.996H77.6692V46.884H80.2012V54ZM85.0649 54H90.3089V53.112H86.0609V50.352H90.2249V49.464H86.0609V46.884H90.3089V45.996H85.0649V54ZM3.936 66H4.932V62.352H9.096V61.464H4.932V58.884H9.18V57.996H3.936V66ZM10.2097 62.004C10.2097 64.368 11.8057 66.144 14.1817 66.144C16.5457 66.144 18.1537 64.368 18.1537 62.004C18.1537 59.64 16.5457 57.864 14.1817 57.864C11.8057 57.864 10.2097 59.64 10.2097 62.004ZM17.1217 62.004C17.1217 63.864 15.9697 65.256 14.1817 65.256C12.3817 65.256 11.2417 63.864 11.2417 62.004C11.2417 60.132 12.3817 58.752 14.1817 58.752C15.9697 58.752 17.1217 60.132 17.1217 62.004ZM24.3414 66H25.5174L23.3574 62.736C24.4494 62.64 25.4334 61.848 25.4334 60.408C25.4334 58.932 24.3894 57.996 22.9254 57.996H19.7094V66H20.7054V62.82H22.3014L24.3414 66ZM24.4014 60.408C24.4014 61.308 23.7534 61.944 22.8054 61.944H20.7054V58.884H22.8054C23.7534 58.884 24.4014 59.508 24.4014 60.408ZM29.624 64.872C30.284 65.616 31.304 66.144 32.696 66.144C34.856 66.144 35.648 64.956 35.648 63.792C35.648 62.112 34.16 61.704 32.852 61.356C31.832 61.08 30.908 60.84 30.908 60.036C30.908 59.28 31.592 58.764 32.552 58.764C33.428 58.764 34.268 59.064 34.868 59.724L35.468 58.992C34.796 58.284 33.848 57.876 32.624 57.876C31.052 57.876 29.876 58.776 29.876 60.096C29.876 61.668 31.304 62.028 32.588 62.364C33.644 62.652 34.616 62.916 34.616 63.876C34.616 64.488 34.16 65.256 32.732 65.256C31.604 65.256 30.74 64.704 30.212 64.116L29.624 64.872ZM42.8112 66H43.8072V57.996H42.8112V61.44H38.1312V57.996H37.1352V66H38.1312V62.328H42.8112V66ZM45.3542 62.004C45.3542 64.368 46.9502 66.144 49.3262 66.144C51.6902 66.144 53.2982 64.368 53.2982 62.004C53.2982 59.64 51.6902 57.864 49.3262 57.864C46.9502 57.864 45.3542 59.64 45.3542 62.004ZM52.2662 62.004C52.2662 63.864 51.1142 65.256 49.3262 65.256C47.5262 65.256 46.3862 63.864 46.3862 62.004C46.3862 60.132 47.5262 58.752 49.3262 58.752C51.1142 58.752 52.2662 60.132 52.2662 62.004ZM54.854 66H55.85V62.82H58.07C59.654 62.82 60.578 61.716 60.578 60.408C60.578 59.1 59.678 57.996 58.07 57.996H54.854V66ZM59.546 60.408C59.546 61.308 58.898 61.932 57.95 61.932H55.85V58.884H57.95C58.898 58.884 59.546 59.508 59.546 60.408ZM68.0169 66H69.0969L71.3769 57.996H70.2729L68.5089 64.668L66.6729 57.996H65.8449L64.0089 64.668L62.2329 57.996H61.1289L63.4089 66H64.4889L66.2529 59.544L68.0169 66ZM77.6762 66H78.7802L75.5522 57.996H74.3162L71.1002 66H72.2042L72.9122 64.224H76.9682L77.6762 66ZM74.9402 58.884L76.6682 63.336H73.2002L74.9402 58.884ZM84.4586 66H85.6346L83.4746 62.736C84.5666 62.64 85.5506 61.848 85.5506 60.408C85.5506 58.932 84.5066 57.996 83.0426 57.996H79.8266V66H80.8226V62.82H82.4186L84.4586 66ZM84.5186 60.408C84.5186 61.308 83.8706 61.944 82.9226 61.944H80.8226V58.884H82.9226C83.8706 58.884 84.5186 59.508 84.5186 60.408ZM87.1274 66H92.3714V65.112H88.1234V62.352H92.2874V61.464H88.1234V58.884H92.3714V57.996H87.1274V66ZM96.7292 62.016C96.7292 64.188 97.5812 66.144 99.8132 66.144C101.565 66.144 102.621 64.92 102.621 63.528C102.621 61.824 101.445 60.972 100.005 60.972C98.9732 60.972 98.0852 61.668 97.7372 62.22C97.7252 62.112 97.7252 62.016 97.7252 61.908C97.7252 60.336 98.4332 58.764 99.9812 58.764C100.821 58.764 101.289 59.1 101.697 59.58L102.201 58.836C101.709 58.272 101.013 57.876 99.9812 57.876C97.7372 57.876 96.7292 59.844 96.7292 62.016ZM101.613 63.564C101.613 64.332 101.013 65.256 99.7772 65.256C98.3852 65.256 97.8572 64.032 97.7612 63.036C98.2052 62.328 98.9732 61.836 99.7652 61.836C100.797 61.836 101.613 62.388 101.613 63.564Z" fill="#3A0F9F"/>
<path d="M8.652 9.75L8.4 27.054C8.4 29.21 8.442 30.806 8.526 31.842C8.974 31.954 9.688 32.01 10.668 32.01C11.676 32.01 12.53 31.926 13.23 31.758C13.958 31.59 14.56 31.296 15.036 30.876C15.54 30.428 15.946 30.022 16.254 29.658C16.562 29.266 16.828 28.692 17.052 27.936C17.388 26.928 17.724 25.598 18.06 23.946C18.06 23.918 18.256 23.904 18.648 23.904C19.068 23.904 19.712 24.1 20.58 24.492C21.476 24.856 21.924 25.136 21.924 25.332C21.924 27.488 21.812 29.924 21.588 32.64C21.364 35.664 21.084 37.176 20.748 37.176C20.44 37.176 19.824 37.05 18.9 36.798C17.976 36.574 17.276 36.364 16.8 36.168C14.28 36.588 11.018 36.812 7.014 36.84L4.914 36.882L3.234 36.672C3.122 36.56 3.066 35.328 3.066 32.976L3.234 16.89C3.234 13.614 3.15 11.878 2.982 11.682C2.842 11.458 2.59 10.926 2.226 10.086C1.862 9.218 1.68 8.658 1.68 8.406C1.68 8.294 1.988 8.14 2.604 7.944C4.144 7.384 5.502 7.104 6.678 7.104C7.854 7.104 8.47 7.146 8.526 7.23C8.61 7.314 8.652 8.154 8.652 9.75ZM27.8457 10.926C28.6297 10.926 29.2597 11.178 29.7357 11.682C30.2117 12.186 30.4497 12.844 30.4497 13.656C30.4497 14.468 30.1277 15.168 29.4837 15.756C28.8677 16.316 28.1677 16.596 27.3837 16.596C26.6277 16.596 26.0117 16.358 25.5357 15.882C25.0877 15.378 24.8637 14.72 24.8637 13.908C24.8637 13.096 25.1717 12.396 25.7877 11.808C26.4037 11.22 27.0897 10.926 27.8457 10.926ZM29.9877 21.384L29.9037 28.188C29.9037 30.372 29.9597 31.982 30.0717 33.018C30.2117 34.026 30.5757 34.978 31.1637 35.874C31.1637 36.154 30.5897 36.602 29.4417 37.218C28.2937 37.834 27.3137 38.142 26.5017 38.142C26.2497 38.142 25.9977 37.722 25.7457 36.882C25.4937 36.042 25.3257 35.244 25.2417 34.488C25.1857 33.732 25.1577 31.184 25.1577 26.844C25.1577 22.504 25.2557 20.138 25.4517 19.746C26.0957 19.242 27.2297 18.99 28.8537 18.99C29.4977 18.99 29.8897 19.074 30.0297 19.242L29.9877 21.384ZM34.3862 29.952L34.3022 14.454C34.3022 10.954 34.3722 9.134 34.5122 8.994C34.8482 8.658 35.3942 8.336 36.1502 8.028C36.9342 7.72 37.6762 7.566 38.3762 7.566C39.0762 7.566 39.4262 7.622 39.4262 7.734C39.3702 8.014 39.2862 9.61 39.1742 12.522C39.0902 15.406 39.0622 17.198 39.0902 17.898H39.7622C42.8702 17.898 45.4042 18.612 47.3642 20.04C48.1482 20.628 48.8342 21.51 49.4222 22.686C50.0102 23.834 50.3042 25.178 50.3042 26.718C50.3042 29.378 49.2262 31.604 47.0702 33.396C44.9142 35.16 42.2682 36.294 39.1322 36.798C39.1322 37.442 39.1182 37.792 39.0902 37.848C38.7262 38.212 38.0822 38.492 37.1582 38.688C36.2622 38.884 35.5202 38.982 34.9322 38.982C34.3722 38.982 34.0922 38.94 34.0922 38.856C34.2882 38.072 34.3862 35.104 34.3862 29.952ZM39.2162 32.178C39.9442 32.178 40.7002 32.066 41.4842 31.842C42.2682 31.59 42.8982 31.282 43.3742 30.918C43.8782 30.554 44.3262 29.98 44.7182 29.196C45.1382 28.412 45.3482 27.39 45.3482 26.13C45.3482 24.87 44.9002 23.904 44.0042 23.232C43.1362 22.56 42.1282 22.224 40.9802 22.224L39.0482 22.35V25.374C39.0482 29.154 39.1042 31.422 39.2162 32.178ZM63.3586 22.644C63.3586 21.832 62.9246 21.426 62.0566 21.426C60.9086 21.426 59.9006 22.014 59.0326 23.19C58.1646 24.366 57.7306 25.78 57.7306 27.432C57.7306 27.824 57.7866 28.02 57.8986 28.02C58.9066 27.992 60.0686 27.418 61.3846 26.298C62.7006 25.15 63.3586 23.932 63.3586 22.644ZM67.0126 36C66.0606 36.644 64.1986 36.966 61.4266 36.966C58.6546 36.966 56.5266 36.14 55.0426 34.488C53.5586 32.836 52.8166 30.638 52.8166 27.894C52.8166 25.122 53.6986 22.728 55.4626 20.712C57.2546 18.668 59.7606 17.646 62.9806 17.646C64.2966 17.646 65.5006 17.996 66.5926 18.696C67.7126 19.396 68.2726 20.628 68.2726 22.392C68.2726 24.128 67.5026 25.85 65.9626 27.558C64.4506 29.266 62.3786 30.568 59.7466 31.464C59.7466 31.8 60.0826 32.08 60.7546 32.304C61.4546 32.5 62.1406 32.598 62.8126 32.598C64.9406 32.598 66.6206 32.22 67.8526 31.464C67.8806 31.436 67.9226 31.422 67.9786 31.422C68.0346 31.422 68.0626 31.688 68.0626 32.22C68.0626 33.844 67.7126 35.104 67.0126 36ZM71.5004 30.33L71.4164 20.796C71.4164 19.144 71.4724 18.262 71.5844 18.15C71.8924 17.842 72.4244 17.576 73.1804 17.352C73.9364 17.1 74.6364 16.974 75.2804 16.974C75.9524 16.974 76.2884 17.044 76.2884 17.184C76.2044 17.94 76.1624 18.808 76.1624 19.788C76.1624 20.74 76.1904 21.216 76.2464 21.216C76.3024 21.216 76.3584 21.188 76.4144 21.132C76.4704 21.048 76.5544 20.936 76.6664 20.796C76.8064 20.628 77.0724 20.348 77.4644 19.956C77.8844 19.564 78.3324 19.228 78.8084 18.948C80.0124 18.164 81.3004 17.772 82.6724 17.772C82.8964 18.136 83.0084 18.696 83.0084 19.452C83.0084 21.048 82.8124 22.182 82.4204 22.854L82.2524 23.19L81.7064 23.106C79.6904 23.106 78.1084 23.932 76.9604 25.584C76.5124 26.256 76.2884 26.76 76.2884 27.096V30.792C76.2884 34.152 76.2464 35.874 76.1624 35.958C75.3784 36.714 73.8384 37.092 71.5424 37.092C71.3184 37.092 71.2064 37.05 71.2064 36.966C71.4024 35.874 71.5004 33.662 71.5004 30.33ZM90.4496 8.49C90.3936 9.134 90.3236 10.898 90.2396 13.782C92.3396 13.782 93.3896 13.824 93.3896 13.908C93.3896 14.86 93.2496 15.714 92.9696 16.47C92.6896 17.198 92.4236 17.562 92.1716 17.562H90.1976C90.1416 21.706 90.1136 25.08 90.1136 27.684C90.1136 30.26 90.1556 31.982 90.2396 32.85C90.4076 34.306 90.9816 35.496 91.9616 36.42C91.9616 36.728 91.4156 37.176 90.3236 37.764C89.2596 38.352 88.2516 38.646 87.2996 38.646C87.2156 38.646 87.0476 38.506 86.7956 38.226C86.5716 37.946 86.3196 37.484 86.0396 36.84C85.7876 36.196 85.6196 35.566 85.5356 34.95C85.4796 34.334 85.4516 32.136 85.4516 28.356C85.4516 24.576 85.4936 21.006 85.5776 17.646L83.2256 17.688C83.0856 17.548 83.0156 16.946 83.0156 15.882C83.0156 14.79 83.1416 14.132 83.3936 13.908C84.0096 13.88 84.7516 13.852 85.6196 13.824C85.6196 12.2 85.5776 11.15 85.4936 10.674C85.4096 10.198 85.3676 9.918 85.3676 9.834C85.3676 9.554 85.8436 9.232 86.7956 8.868C87.7756 8.504 88.6296 8.322 89.3576 8.322C90.0856 8.322 90.4496 8.378 90.4496 8.49ZM109.955 24.282L109.997 35.454C109.997 37.638 109.703 39.584 109.115 41.292C108.555 43 107.855 44.316 107.015 45.24C106.203 46.164 105.265 46.92 104.201 47.508C102.465 48.488 100.701 48.978 98.9093 48.978C98.8253 48.978 98.6573 48.768 98.4053 48.348C98.1533 47.928 97.9153 47.354 97.6913 46.626C97.4673 45.926 97.3553 45.268 97.3553 44.652C98.4193 44.652 99.4833 44.442 100.547 44.022C101.611 43.63 102.353 43.196 102.773 42.72C103.193 42.272 103.613 41.698 104.033 40.998C104.901 39.626 105.335 37.4 105.335 34.32L105.293 33.102C105.293 32.934 105.265 32.85 105.209 32.85C105.153 32.85 105.097 32.892 105.041 32.976C104.985 33.06 104.915 33.172 104.831 33.312C104.747 33.424 104.537 33.648 104.201 33.984C103.893 34.292 103.557 34.572 103.193 34.824C102.213 35.496 101.219 35.832 100.211 35.832C99.2313 35.832 98.4473 35.706 97.8593 35.454C97.2993 35.202 96.8233 34.88 96.4313 34.488C96.0673 34.096 95.7593 33.55 95.5073 32.85C95.2553 32.122 95.0593 31.45 94.9193 30.834C94.7793 30.218 94.6813 29.378 94.6253 28.314C94.5133 26.83 94.4573 25.29 94.4573 23.694C94.4573 21.482 94.5693 19.676 94.7933 18.276L94.9193 17.688C94.9193 17.492 95.3393 17.296 96.1793 17.1C97.0473 16.904 97.7613 16.806 98.3213 16.806L99.6653 17.016C99.3573 19.788 99.2033 22.126 99.2033 24.03C99.2033 25.934 99.3993 27.516 99.7913 28.776C100.183 30.036 100.841 30.666 101.765 30.666C102.689 30.666 103.417 30.4 103.949 29.868C104.509 29.308 104.859 28.762 104.999 28.23L105.209 27.432C105.153 25.668 105.125 23.778 105.125 21.762C105.125 19.718 105.195 18.626 105.335 18.486C105.699 18.122 106.329 17.842 107.225 17.646C108.149 17.45 108.891 17.352 109.451 17.352C110.011 17.352 110.291 17.394 110.291 17.478C110.067 18.794 109.955 21.062 109.955 24.282Z" fill="#3A0F9F"/>
</svg>
