<svg width="114" height="62" viewBox="0 0 114 62" fill="none" xmlns="http://www.w3.org/2000/svg">
<rect width="114" height="62" fill="url(#paint0_linear)"/>
<path d="M11.468 42H11.966V40.176H14.048V39.732H11.966V38.442H14.09V37.998H11.468V42ZM17.0828 42H17.6708L16.5908 40.368C17.1368 40.32 17.6288 39.924 17.6288 39.204C17.6288 38.466 17.1068 37.998 16.3748 37.998H14.7668V42H15.2648V40.41H16.0628L17.0828 42ZM17.1128 39.204C17.1128 39.654 16.7888 39.972 16.3148 39.972H15.2648V38.442H16.3148C16.7888 38.442 17.1128 38.754 17.1128 39.204ZM18.4172 42H21.0392V41.556H18.9152V40.176H20.9972V39.732H18.9152V38.442H21.0392V37.998H18.4172V42ZM21.8332 42H24.4552V41.556H22.3312V40.176H24.4132V39.732H22.3312V38.442H24.4552V37.998H21.8332V42ZM27.7861 42H28.2841V38.442H29.5561V37.998H26.5201V38.442H27.7861V42ZM30.218 42H32.84V41.556H30.716V40.176H32.798V39.732H30.716V38.442H32.84V37.998H30.218V42ZM37.054 42H37.552V37.998H36.838L35.59 41.046L34.348 37.998H33.634V42H34.132V38.67L35.488 42H35.692L37.054 38.67V42ZM38.4856 42H38.9836V40.41H40.0936C40.8856 40.41 41.3476 39.858 41.3476 39.204C41.3476 38.55 40.8976 37.998 40.0936 37.998H38.4856V42ZM40.8316 39.204C40.8316 39.654 40.5076 39.966 40.0336 39.966H38.9836V38.442H40.0336C40.5076 38.442 40.8316 38.754 40.8316 39.204ZM42.0071 42H44.3651V41.556H42.5051V37.998H42.0071V42ZM47.9397 42H48.4917L46.8777 37.998H46.2597L44.6517 42H45.2037L45.5577 41.112H47.5857L47.9397 42ZM46.5717 38.442L47.4357 40.668H45.7017L46.5717 38.442ZM49.6006 42H50.0986V38.442H51.3706V37.998H48.3346V38.442H49.6006V42ZM52.0325 42H54.6545V41.556H52.5305V40.176H54.6125V39.732H52.5305V38.442H54.6545V37.998H52.0325V42ZM11.468 48H11.966V46.176H14.048V45.732H11.966V44.442H14.09V43.998H11.468V48ZM14.6048 46.002C14.6048 47.184 15.4028 48.072 16.5908 48.072C17.7728 48.072 18.5768 47.184 18.5768 46.002C18.5768 44.82 17.7728 43.932 16.5908 43.932C15.4028 43.932 14.6048 44.82 14.6048 46.002ZM18.0608 46.002C18.0608 46.932 17.4848 47.628 16.5908 47.628C15.6908 47.628 15.1208 46.932 15.1208 46.002C15.1208 45.066 15.6908 44.376 16.5908 44.376C17.4848 44.376 18.0608 45.066 18.0608 46.002ZM21.6707 48H22.2587L21.1787 46.368C21.7247 46.32 22.2167 45.924 22.2167 45.204C22.2167 44.466 21.6947 43.998 20.9627 43.998H19.3547V48H19.8527V46.41H20.6507L21.6707 48ZM21.7007 45.204C21.7007 45.654 21.3767 45.972 20.9027 45.972H19.8527V44.442H20.9027C21.3767 44.442 21.7007 44.754 21.7007 45.204ZM24.312 47.436C24.642 47.808 25.152 48.072 25.848 48.072C26.928 48.072 27.324 47.478 27.324 46.896C27.324 46.056 26.58 45.852 25.926 45.678C25.416 45.54 24.954 45.42 24.954 45.018C24.954 44.64 25.296 44.382 25.776 44.382C26.214 44.382 26.634 44.532 26.934 44.862L27.234 44.496C26.898 44.142 26.424 43.938 25.812 43.938C25.026 43.938 24.438 44.388 24.438 45.048C24.438 45.834 25.152 46.014 25.794 46.182C26.322 46.326 26.808 46.458 26.808 46.938C26.808 47.244 26.58 47.628 25.866 47.628C25.302 47.628 24.87 47.352 24.606 47.058L24.312 47.436ZM30.9056 48H31.4036V43.998H30.9056V45.72H28.5656V43.998H28.0676V48H28.5656V46.164H30.9056V48ZM32.1771 46.002C32.1771 47.184 32.9751 48.072 34.1631 48.072C35.3451 48.072 36.1491 47.184 36.1491 46.002C36.1491 44.82 35.3451 43.932 34.1631 43.932C32.9751 43.932 32.1771 44.82 32.1771 46.002ZM35.6331 46.002C35.6331 46.932 35.0571 47.628 34.1631 47.628C33.2631 47.628 32.6931 46.932 32.6931 46.002C32.6931 45.066 33.2631 44.376 34.1631 44.376C35.0571 44.376 35.6331 45.066 35.6331 46.002ZM36.927 48H37.425V46.41H38.535C39.327 46.41 39.789 45.858 39.789 45.204C39.789 44.55 39.339 43.998 38.535 43.998H36.927V48ZM39.273 45.204C39.273 45.654 38.949 45.966 38.475 45.966H37.425V44.442H38.475C38.949 44.442 39.273 44.754 39.273 45.204ZM43.5085 48H44.0485L45.1885 43.998H44.6365L43.7545 47.334L42.8365 43.998H42.4225L41.5045 47.334L40.6165 43.998H40.0645L41.2045 48H41.7445L42.6265 44.772L43.5085 48ZM48.3381 48H48.8901L47.2761 43.998H46.6581L45.0501 48H45.6021L45.9561 47.112H47.9841L48.3381 48ZM46.9701 44.442L47.8341 46.668H46.1001L46.9701 44.442ZM51.7293 48H52.3173L51.2373 46.368C51.7833 46.32 52.2753 45.924 52.2753 45.204C52.2753 44.466 51.7533 43.998 51.0213 43.998H49.4133V48H49.9113V46.41H50.7093L51.7293 48ZM51.7593 45.204C51.7593 45.654 51.4353 45.972 50.9613 45.972H49.9113V44.442H50.9613C51.4353 44.442 51.7593 44.754 51.7593 45.204ZM53.0637 48H55.6857V47.556H53.5617V46.176H55.6437V45.732H53.5617V44.442H55.6857V43.998H53.0637V48ZM57.8646 46.008C57.8646 47.094 58.2906 48.072 59.4066 48.072C60.2826 48.072 60.8106 47.46 60.8106 46.764C60.8106 45.912 60.2226 45.486 59.5026 45.486C58.9866 45.486 58.5426 45.834 58.3686 46.11C58.3626 46.056 58.3626 46.008 58.3626 45.954C58.3626 45.168 58.7166 44.382 59.4906 44.382C59.9106 44.382 60.1446 44.55 60.3486 44.79L60.6006 44.418C60.3546 44.136 60.0066 43.938 59.4906 43.938C58.3686 43.938 57.8646 44.922 57.8646 46.008ZM60.3066 46.782C60.3066 47.166 60.0066 47.628 59.3886 47.628C58.6926 47.628 58.4286 47.016 58.3806 46.518C58.6026 46.164 58.9866 45.918 59.3826 45.918C59.8986 45.918 60.3066 46.194 60.3066 46.782Z" fill="white"/>
<path d="M15.768 15.5L15.6 27.036C15.6 28.4733 15.628 29.5373 15.684 30.228C15.9827 30.3027 16.4587 30.34 17.112 30.34C17.784 30.34 18.3533 30.284 18.82 30.172C19.3053 30.06 19.7067 29.864 20.024 29.584C20.36 29.2853 20.6307 29.0147 20.836 28.772C21.0413 28.5107 21.2187 28.128 21.368 27.624C21.592 26.952 21.816 26.0653 22.04 24.964C22.04 24.9453 22.1707 24.936 22.432 24.936C22.712 24.936 23.1413 25.0667 23.72 25.328C24.3173 25.5707 24.616 25.7573 24.616 25.888C24.616 27.3253 24.5413 28.9493 24.392 30.76C24.2427 32.776 24.056 33.784 23.832 33.784C23.6267 33.784 23.216 33.7 22.6 33.532C21.984 33.3827 21.5173 33.2427 21.2 33.112C19.52 33.392 17.3453 33.5413 14.676 33.56L13.276 33.588L12.156 33.448C12.0813 33.3733 12.044 32.552 12.044 30.984L12.156 20.26C12.156 18.076 12.1 16.9187 11.988 16.788C11.8947 16.6387 11.7267 16.284 11.484 15.724C11.2413 15.1453 11.12 14.772 11.12 14.604C11.12 14.5293 11.3253 14.4267 11.736 14.296C12.7627 13.9227 13.668 13.736 14.452 13.736C15.236 13.736 15.6467 13.764 15.684 13.82C15.74 13.876 15.768 14.436 15.768 15.5ZM28.5638 16.284C29.0864 16.284 29.5064 16.452 29.8238 16.788C30.1411 17.124 30.2998 17.5627 30.2998 18.104C30.2998 18.6453 30.0851 19.112 29.6558 19.504C29.2451 19.8773 28.7784 20.064 28.2558 20.064C27.7518 20.064 27.3411 19.9053 27.0238 19.588C26.7251 19.252 26.5758 18.8133 26.5758 18.272C26.5758 17.7307 26.7811 17.264 27.1918 16.872C27.6024 16.48 28.0598 16.284 28.5638 16.284ZM29.9918 23.256L29.9358 27.792C29.9358 29.248 29.9731 30.3213 30.0478 31.012C30.1411 31.684 30.3838 32.3187 30.7758 32.916C30.7758 33.1027 30.3931 33.4013 29.6278 33.812C28.8624 34.2227 28.2091 34.428 27.6678 34.428C27.4998 34.428 27.3318 34.148 27.1638 33.588C26.9958 33.028 26.8838 32.496 26.8278 31.992C26.7904 31.488 26.7718 29.7893 26.7718 26.896C26.7718 24.0027 26.8371 22.4253 26.9678 22.164C27.3971 21.828 28.1531 21.66 29.2358 21.66C29.6651 21.66 29.9264 21.716 30.0198 21.828L29.9918 23.256ZM32.9241 28.968L32.8681 18.636C32.8681 16.3027 32.9148 15.0893 33.0081 14.996C33.2321 14.772 33.5961 14.5573 34.1001 14.352C34.6228 14.1467 35.1175 14.044 35.5841 14.044C36.0508 14.044 36.2841 14.0813 36.2841 14.156C36.2468 14.3427 36.1908 15.4067 36.1161 17.348C36.0601 19.2707 36.0415 20.4653 36.0601 20.932H36.5081C38.5801 20.932 40.2695 21.408 41.5761 22.36C42.0988 22.752 42.5561 23.34 42.9481 24.124C43.3401 24.8893 43.5361 25.7853 43.5361 26.812C43.5361 28.5853 42.8175 30.0693 41.3801 31.264C39.9428 32.44 38.1788 33.196 36.0881 33.532C36.0881 33.9613 36.0788 34.1947 36.0601 34.232C35.8175 34.4747 35.3881 34.6613 34.7721 34.792C34.1748 34.9227 33.6801 34.988 33.2881 34.988C32.9148 34.988 32.7281 34.96 32.7281 34.904C32.8588 34.3813 32.9241 32.4027 32.9241 28.968ZM36.1441 30.452C36.6295 30.452 37.1335 30.3773 37.6561 30.228C38.1788 30.06 38.5988 29.8547 38.9161 29.612C39.2521 29.3693 39.5508 28.9867 39.8121 28.464C40.0921 27.9413 40.2321 27.26 40.2321 26.42C40.2321 25.58 39.9335 24.936 39.3361 24.488C38.7575 24.04 38.0855 23.816 37.3201 23.816L36.0321 23.9V25.916C36.0321 28.436 36.0695 29.948 36.1441 30.452ZM52.2391 24.096C52.2391 23.5547 51.9498 23.284 51.3711 23.284C50.6058 23.284 49.9338 23.676 49.3551 24.46C48.7764 25.244 48.4871 26.1867 48.4871 27.288C48.4871 27.5493 48.5244 27.68 48.5991 27.68C49.2711 27.6613 50.0458 27.2787 50.9231 26.532C51.8004 25.7667 52.2391 24.9547 52.2391 24.096ZM54.6751 33C54.0404 33.4293 52.7991 33.644 50.9511 33.644C49.1031 33.644 47.6844 33.0933 46.6951 31.992C45.7058 30.8907 45.2111 29.4253 45.2111 27.596C45.2111 25.748 45.7991 24.152 46.9751 22.808C48.1698 21.4453 49.8404 20.764 51.9871 20.764C52.8644 20.764 53.6671 20.9973 54.3951 21.464C55.1418 21.9307 55.5151 22.752 55.5151 23.928C55.5151 25.0853 55.0018 26.2333 53.9751 27.372C52.9671 28.5107 51.5858 29.3787 49.8311 29.976C49.8311 30.2 50.0551 30.3867 50.5031 30.536C50.9698 30.6667 51.4271 30.732 51.8751 30.732C53.2938 30.732 54.4138 30.48 55.2351 29.976C55.2538 29.9573 55.2818 29.948 55.3191 29.948C55.3564 29.948 55.3751 30.1253 55.3751 30.48C55.3751 31.5627 55.1418 32.4027 54.6751 33ZM57.6669 29.22L57.6109 22.864C57.6109 21.7627 57.6483 21.1747 57.7229 21.1C57.9283 20.8947 58.2829 20.7173 58.7869 20.568C59.2909 20.4 59.7576 20.316 60.1869 20.316C60.6349 20.316 60.8589 20.3627 60.8589 20.456C60.8029 20.96 60.7749 21.5387 60.7749 22.192C60.7749 22.8267 60.7936 23.144 60.8309 23.144C60.8683 23.144 60.9056 23.1253 60.9429 23.088C60.9803 23.032 61.0363 22.9573 61.1109 22.864C61.2043 22.752 61.3816 22.5653 61.6429 22.304C61.9229 22.0427 62.2216 21.8187 62.5389 21.632C63.3416 21.1093 64.2003 20.848 65.1149 20.848C65.2643 21.0907 65.3389 21.464 65.3389 21.968C65.3389 23.032 65.2083 23.788 64.9469 24.236L64.8349 24.46L64.4709 24.404C63.1269 24.404 62.0723 24.9547 61.3069 26.056C61.0083 26.504 60.8589 26.84 60.8589 27.064V29.528C60.8589 31.768 60.8309 32.916 60.7749 32.972C60.2523 33.476 59.2256 33.728 57.6949 33.728C57.5456 33.728 57.4709 33.7 57.4709 33.644C57.6016 32.916 57.6669 31.4413 57.6669 29.22ZM70.2998 14.66C70.2624 15.0893 70.2158 16.2653 70.1598 18.188C71.5598 18.188 72.2598 18.216 72.2598 18.272C72.2598 18.9067 72.1664 19.476 71.9798 19.98C71.7931 20.4653 71.6158 20.708 71.4478 20.708H70.1318C70.0944 23.4707 70.0758 25.72 70.0758 27.456C70.0758 29.1733 70.1038 30.3213 70.1598 30.9C70.2718 31.8707 70.6544 32.664 71.3078 33.28C71.3078 33.4853 70.9438 33.784 70.2158 34.176C69.5064 34.568 68.8344 34.764 68.1998 34.764C68.1438 34.764 68.0318 34.6707 67.8638 34.484C67.7144 34.2973 67.5464 33.9893 67.3598 33.56C67.1918 33.1307 67.0798 32.7107 67.0238 32.3C66.9864 31.8893 66.9678 30.424 66.9678 27.904C66.9678 25.384 66.9958 23.004 67.0518 20.764L65.4838 20.792C65.3904 20.6987 65.3438 20.2973 65.3438 19.588C65.3438 18.86 65.4278 18.4213 65.5958 18.272C66.0064 18.2533 66.5011 18.2347 67.0798 18.216C67.0798 17.1333 67.0518 16.4333 66.9958 16.116C66.9398 15.7987 66.9118 15.612 66.9118 15.556C66.9118 15.3693 67.2291 15.1547 67.8638 14.912C68.5171 14.6693 69.0864 14.548 69.5718 14.548C70.0571 14.548 70.2998 14.5853 70.2998 14.66ZM83.3036 25.188L83.3316 32.636C83.3316 34.092 83.1356 35.3893 82.7436 36.528C82.3702 37.6667 81.9036 38.544 81.3436 39.16C80.8022 39.776 80.1769 40.28 79.4676 40.672C78.3102 41.3253 77.1342 41.652 75.9396 41.652C75.8836 41.652 75.7716 41.512 75.6036 41.232C75.4356 40.952 75.2769 40.5693 75.1276 40.084C74.9782 39.6173 74.9036 39.1787 74.9036 38.768C75.6129 38.768 76.3222 38.628 77.0316 38.348C77.7409 38.0867 78.2356 37.7973 78.5156 37.48C78.7956 37.1813 79.0756 36.7987 79.3556 36.332C79.9342 35.4173 80.2236 33.9333 80.2236 31.88L80.1956 31.068C80.1956 30.956 80.1769 30.9 80.1396 30.9C80.1022 30.9 80.0649 30.928 80.0276 30.984C79.9902 31.04 79.9436 31.1147 79.8876 31.208C79.8316 31.2827 79.6916 31.432 79.4676 31.656C79.2622 31.8613 79.0382 32.048 78.7956 32.216C78.1422 32.664 77.4796 32.888 76.8076 32.888C76.1542 32.888 75.6316 32.804 75.2396 32.636C74.8662 32.468 74.5489 32.2533 74.2876 31.992C74.0449 31.7307 73.8396 31.3667 73.6716 30.9C73.5036 30.4147 73.3729 29.9667 73.2796 29.556C73.1862 29.1453 73.1209 28.5853 73.0836 27.876C73.0089 26.8867 72.9716 25.86 72.9716 24.796C72.9716 23.3213 73.0462 22.1173 73.1956 21.184L73.2796 20.792C73.2796 20.6613 73.5596 20.5307 74.1196 20.4C74.6982 20.2693 75.1742 20.204 75.5476 20.204L76.4436 20.344C76.2382 22.192 76.1356 23.7507 76.1356 25.02C76.1356 26.2893 76.2662 27.344 76.5276 28.184C76.7889 29.024 77.2276 29.444 77.8436 29.444C78.4596 29.444 78.9449 29.2667 79.2996 28.912C79.6729 28.5387 79.9062 28.1747 79.9996 27.82L80.1396 27.288C80.1022 26.112 80.0836 24.852 80.0836 23.508C80.0836 22.1453 80.1302 21.4173 80.2236 21.324C80.4662 21.0813 80.8862 20.8947 81.4836 20.764C82.0996 20.6333 82.5942 20.568 82.9676 20.568C83.3409 20.568 83.5276 20.596 83.5276 20.652C83.3782 21.5293 83.3036 23.0413 83.3036 25.188Z" fill="white"/>
<defs>
<linearGradient id="paint0_linear" x1="57" y1="0" x2="57" y2="62" gradientUnits="userSpaceOnUse">
<stop stop-color="#870FFF"/>
<stop offset="0.617424" stop-color="#260E86"/>
</linearGradient>
</defs>
</svg>
